{
  "asset": { "generator": "glTF-Transform v4.5.1", "version": "2.0" },
  "accessors": [
    {
      "type": "SCALAR",
      "componentType": 5123,
      "count": 216,
      "normalized": false,
      "byteOffset": 0,
      "bufferView": 0
    },
    {
      "type": "SCALAR",
      "componentType": 5123,
      "count": 381,
      "normalized": false,
      "byteOffset": 432,
      "bufferView": 0
    },
    {
      "type": "SCALAR",
      "componentType": 5123,
      "count": 639,
      "normalized": false,
      "byteOffset": 1194,
      "bufferView": 0
    },
    {
      "type": "SCALAR",
      "componentType": 5123,
      "count": 531,
      "normalized": false,
      "byteOffset": 2472,
      "bufferView": 0
    },
    {
      "type": "SCALAR",
      "componentType": 5123,
      "count": 564,
      "normalized": false,
      "byteOffset": 3534,
      "bufferView": 0
    },
    {
      "type": "SCALAR",
      "componentType": 5123,
      "count": 291,
      "normalized": false,
      "byteOffset": 4662,
      "bufferView": 0
    },
    {
      "type": "SCALAR",
      "componentType": 5123,
      "count": 8814,
      "normalized": false,
      "byteOffset": 5244,
      "bufferView": 0
    },
    {
      "type": "SCALAR",
      "componentType": 5123,
      "count": 12123,
      "normalized": false,
      "byteOffset": 22872,
      "bufferView": 0
    },
    {
      "type": "SCALAR",
      "componentType": 5123,
      "count": 9888,
      "normalized": false,
      "byteOffset": 47118,
      "bufferView": 0
    },
    {
      "type": "SCALAR",
      "componentType": 5123,
      "count": 2754,
      "normalized": false,
      "byteOffset": 66894,
      "bufferView": 0
    },
    {
      "type": "SCALAR",
      "componentType": 5123,
      "count": 84,
      "normalized": false,
      "byteOffset": 72402,
      "bufferView": 0
    },
    {
      "type": "VEC2",
      "componentType": 5126,
      "count": 44,
      "normalized": false,
      "byteOffset": 0,
      "bufferView": 1
    },
    {
      "type": "SCALAR",
      "componentType": 5123,
      "count": 72,
      "normalized": false,
      "byteOffset": 72570,
      "bufferView": 0
    },
    {
      "type": "VEC2",
      "componentType": 5126,
      "count": 44,
      "normalized": false,
      "byteOffset": 0,
      "bufferView": 2
    },
    {
      "type": "SCALAR",
      "componentType": 5123,
      "count": 12,
      "normalized": false,
      "byteOffset": 72714,
      "bufferView": 0
    },
    {
      "type": "SCALAR",
      "componentType": 5123,
      "count": 15,
      "normalized": false,
      "byteOffset": 72738,
      "bufferView": 0
    },
    {
      "type": "VEC2",
      "componentType": 5126,
      "count": 7,
      "normalized": false,
      "byteOffset": 0,
      "bufferView": 3
    },
    {
      "type": "SCALAR",
      "componentType": 5123,
      "count": 564,
      "normalized": false,
      "byteOffset": 72768,
      "bufferView": 0
    },
    {
      "type": "SCALAR",
      "componentType": 5123,
      "count": 30,
      "normalized": false,
      "byteOffset": 73896,
      "bufferView": 0
    },
    {
      "type": "VEC2",
      "componentType": 5126,
      "count": 20,
      "normalized": false,
      "byteOffset": 0,
      "bufferView": 4
    },
    {
      "type": "SCALAR",
      "componentType": 5123,
      "count": 228,
      "normalized": false,
      "byteOffset": 73956,
      "bufferView": 0
    },
    {
      "type": "SCALAR",
      "componentType": 5123,
      "count": 6,
      "normalized": false,
      "byteOffset": 74412,
      "bufferView": 0
    },
    {
      "type": "VEC2",
      "componentType": 5126,
      "count": 4,
      "normalized": false,
      "byteOffset": 0,
      "bufferView": 5
    },
    {
      "type": "SCALAR",
      "componentType": 5123,
      "count": 192,
      "normalized": false,
      "byteOffset": 74424,
      "bufferView": 0
    },
    {
      "type": "VEC2",
      "componentType": 5126,
      "count": 80,
      "normalized": false,
      "byteOffset": 0,
      "bufferView": 6
    },
    {
      "type": "SCALAR",
      "componentType": 5123,
      "count": 42,
      "normalized": false,
      "byteOffset": 74808,
      "bufferView": 0
    },
    {
      "type": "VEC2",
      "componentType": 5126,
      "count": 28,
      "normalized": false,
      "byteOffset": 0,
      "bufferView": 7
    },
    {
      "type": "SCALAR",
      "componentType": 5123,
      "count": 927,
      "normalized": false,
      "byteOffset": 74892,
      "bufferView": 0
    },
    {
      "type": "VEC3",
      "componentType": 5122,
      "count": 120,
      "max": [31155, 14525, 32767],
      "min": [-31155, -14525, -32767],
      "normalized": true,
      "byteOffset": 0,
      "bufferView": 8
    },
    {
      "type": "VEC3",
      "componentType": 5122,
      "count": 120,
      "normalized": true,
      "byteOffset": 0,
      "bufferView": 9
    },
    {
      "type": "VEC2",
      "componentType": 5123,
      "count": 120,
      "normalized": true,
      "byteOffset": 0,
      "bufferView": 10
    },
    {
      "type": "VEC2",
      "componentType": 5123,
      "count": 120,
      "normalized": true,
      "byteOffset": 0,
      "bufferView": 11
    },
    {
      "type": "VEC3",
      "componentType": 5122,
      "count": 231,
      "max": [32147, 4648, 32767],
      "min": [-32147, -4648, -32767],
      "normalized": true,
      "byteOffset": 0,
      "bufferView": 12
    },
    {
      "type": "VEC3",
      "componentType": 5122,
      "count": 231,
      "normalized": true,
      "byteOffset": 0,
      "bufferView": 13
    },
    {
      "type": "VEC2",
      "componentType": 5123,
      "count": 231,
      "normalized": true,
      "byteOffset": 0,
      "bufferView": 14
    },
    {
      "type": "VEC2",
      "componentType": 5123,
      "count": 231,
      "normalized": true,
      "byteOffset": 0,
      "bufferView": 15
    },
    {
      "type": "VEC3",
      "componentType": 5122,
      "count": 355,
      "max": [32283, 31139, 32767],
      "min": [-32283, -31139, -32767],
      "normalized": true,
      "byteOffset": 0,
      "bufferView": 16
    },
    {
      "type": "VEC3",
      "componentType": 5122,
      "count": 355,
      "normalized": true,
      "byteOffset": 0,
      "bufferView": 17
    },
    {
      "type": "VEC2",
      "componentType": 5123,
      "count": 355,
      "normalized": true,
      "byteOffset": 0,
      "bufferView": 18
    },
    {
      "type": "VEC2",
      "componentType": 5123,
      "count": 355,
      "normalized": true,
      "byteOffset": 0,
      "bufferView": 19
    },
    {
      "type": "VEC3",
      "componentType": 5122,
      "count": 284,
      "max": [26907, 25367, 32767],
      "min": [-26907, -25367, -32767],
      "normalized": true,
      "byteOffset": 0,
      "bufferView": 20
    },
    {
      "type": "VEC3",
      "componentType": 5122,
      "count": 284,
      "normalized": true,
      "byteOffset": 0,
      "bufferView": 21
    },
    {
      "type": "VEC2",
      "componentType": 5123,
      "count": 284,
      "normalized": true,
      "byteOffset": 0,
      "bufferView": 22
    },
    {
      "type": "VEC2",
      "componentType": 5123,
      "count": 284,
      "normalized": true,
      "byteOffset": 0,
      "bufferView": 23
    },
    {
      "type": "VEC3",
      "componentType": 5122,
      "count": 323,
      "max": [32035, 27959, 32767],
      "min": [-32035, -27959, -32767],
      "normalized": true,
      "byteOffset": 0,
      "bufferView": 24
    },
    {
      "type": "VEC3",
      "componentType": 5122,
      "count": 323,
      "normalized": true,
      "byteOffset": 0,
      "bufferView": 25
    },
    {
      "type": "VEC2",
      "componentType": 5123,
      "count": 323,
      "normalized": true,
      "byteOffset": 0,
      "bufferView": 26
    },
    {
      "type": "VEC2",
      "componentType": 5123,
      "count": 323,
      "normalized": true,
      "byteOffset": 0,
      "bufferView": 27
    },
    {
      "type": "VEC3",
      "componentType": 5122,
      "count": 121,
      "max": [32767, 1132, 32095],
      "min": [-32767, -1132, -32095],
      "normalized": true,
      "byteOffset": 0,
      "bufferView": 28
    },
    {
      "type": "VEC3",
      "componentType": 5122,
      "count": 121,
      "normalized": true,
      "byteOffset": 0,
      "bufferView": 29
    },
    {
      "type": "VEC2",
      "componentType": 5123,
      "count": 121,
      "normalized": true,
      "byteOffset": 0,
      "bufferView": 30
    },
    {
      "type": "VEC2",
      "componentType": 5123,
      "count": 121,
      "normalized": true,
      "byteOffset": 0,
      "bufferView": 31
    },
    {
      "type": "VEC3",
      "componentType": 5122,
      "count": 3661,
      "max": [32767, 7372, 26179],
      "min": [-32767, -7372, -26179],
      "normalized": true,
      "byteOffset": 0,
      "bufferView": 32
    },
    {
      "type": "VEC3",
      "componentType": 5122,
      "count": 3661,
      "normalized": true,
      "byteOffset": 0,
      "bufferView": 33
    },
    {
      "type": "VEC2",
      "componentType": 5123,
      "count": 3661,
      "normalized": true,
      "byteOffset": 0,
      "bufferView": 34
    },
    {
      "type": "VEC2",
      "componentType": 5123,
      "count": 3661,
      "normalized": true,
      "byteOffset": 0,
      "bufferView": 35
    },
    {
      "type": "VEC3",
      "componentType": 5122,
      "count": 6558,
      "max": [8765, 18834, 32767],
      "min": [-8765, -18834, -32767],
      "normalized": true,
      "byteOffset": 0,
      "bufferView": 36
    },
    {
      "type": "VEC3",
      "componentType": 5122,
      "count": 6558,
      "normalized": true,
      "byteOffset": 0,
      "bufferView": 37
    },
    {
      "type": "VEC2",
      "componentType": 5123,
      "count": 6558,
      "normalized": true,
      "byteOffset": 0,
      "bufferView": 38
    },
    {
      "type": "VEC2",
      "componentType": 5123,
      "count": 6558,
      "normalized": true,
      "byteOffset": 0,
      "bufferView": 39
    },
    {
      "type": "VEC3",
      "componentType": 5122,
      "count": 5679,
      "max": [14369, 32767, 23770],
      "min": [-14369, -32767, -23770],
      "normalized": true,
      "byteOffset": 0,
      "bufferView": 40
    },
    {
      "type": "VEC3",
      "componentType": 5122,
      "count": 5679,
      "normalized": true,
      "byteOffset": 0,
      "bufferView": 41
    },
    {
      "type": "VEC2",
      "componentType": 5123,
      "count": 5679,
      "normalized": true,
      "byteOffset": 0,
      "bufferView": 42
    },
    {
      "type": "VEC2",
      "componentType": 5123,
      "count": 5679,
      "normalized": true,
      "byteOffset": 0,
      "bufferView": 43
    },
    {
      "type": "VEC3",
      "componentType": 5122,
      "count": 1522,
      "max": [28295, 27755, 32767],
      "min": [-28295, -27755, -32767],
      "normalized": true,
      "byteOffset": 0,
      "bufferView": 44
    },
    {
      "type": "VEC3",
      "componentType": 5122,
      "count": 1522,
      "normalized": true,
      "byteOffset": 0,
      "bufferView": 45
    },
    {
      "type": "VEC2",
      "componentType": 5123,
      "count": 1522,
      "normalized": true,
      "byteOffset": 0,
      "bufferView": 46
    },
    {
      "type": "VEC2",
      "componentType": 5123,
      "count": 1522,
      "normalized": true,
      "byteOffset": 0,
      "bufferView": 47
    },
    {
      "type": "VEC3",
      "componentType": 5122,
      "count": 44,
      "max": [32767, 6116, 23798],
      "min": [-32767, -6116, -23798],
      "normalized": true,
      "byteOffset": 0,
      "bufferView": 48
    },
    {
      "type": "VEC3",
      "componentType": 5122,
      "count": 44,
      "normalized": true,
      "byteOffset": 0,
      "bufferView": 49
    },
    {
      "type": "VEC2",
      "componentType": 5123,
      "count": 44,
      "normalized": true,
      "byteOffset": 0,
      "bufferView": 50
    },
    {
      "type": "VEC3",
      "componentType": 5122,
      "count": 44,
      "max": [32767, 27783, 25851],
      "min": [-32767, -27783, -25851],
      "normalized": true,
      "byteOffset": 0,
      "bufferView": 51
    },
    {
      "type": "VEC3",
      "componentType": 5122,
      "count": 44,
      "normalized": true,
      "byteOffset": 0,
      "bufferView": 52
    },
    {
      "type": "VEC2",
      "componentType": 5123,
      "count": 44,
      "normalized": true,
      "byteOffset": 0,
      "bufferView": 53
    },
    {
      "type": "VEC3",
      "componentType": 5122,
      "count": 8,
      "max": [25543, 19626, 32767],
      "min": [-25543, -19626, -32767],
      "normalized": true,
      "byteOffset": 0,
      "bufferView": 54
    },
    {
      "type": "VEC3",
      "componentType": 5122,
      "count": 8,
      "normalized": true,
      "byteOffset": 0,
      "bufferView": 55
    },
    {
      "type": "VEC2",
      "componentType": 5123,
      "count": 8,
      "normalized": true,
      "byteOffset": 0,
      "bufferView": 56
    },
    {
      "type": "VEC2",
      "componentType": 5123,
      "count": 8,
      "normalized": true,
      "byteOffset": 0,
      "bufferView": 57
    },
    {
      "type": "VEC3",
      "componentType": 5122,
      "count": 7,
      "max": [24506, 0, 32767],
      "min": [-24506, 0, -32767],
      "normalized": true,
      "byteOffset": 0,
      "bufferView": 58
    },
    {
      "type": "VEC3",
      "componentType": 5122,
      "count": 7,
      "normalized": true,
      "byteOffset": 0,
      "bufferView": 59
    },
    {
      "type": "VEC2",
      "componentType": 5123,
      "count": 7,
      "normalized": true,
      "byteOffset": 0,
      "bufferView": 60
    },
    {
      "type": "VEC3",
      "componentType": 5122,
      "count": 196,
      "max": [32767, 1944, 5104],
      "min": [-32767, -1944, -5104],
      "normalized": true,
      "byteOffset": 0,
      "bufferView": 61
    },
    {
      "type": "VEC3",
      "componentType": 5122,
      "count": 196,
      "normalized": true,
      "byteOffset": 0,
      "bufferView": 62
    },
    {
      "type": "VEC2",
      "componentType": 5123,
      "count": 196,
      "normalized": true,
      "byteOffset": 0,
      "bufferView": 63
    },
    {
      "type": "VEC3",
      "componentType": 5122,
      "count": 20,
      "max": [32767, 1320, 32767],
      "min": [-32767, -1320, -32767],
      "normalized": true,
      "byteOffset": 0,
      "bufferView": 64
    },
    {
      "type": "VEC3",
      "componentType": 5122,
      "count": 20,
      "normalized": true,
      "byteOffset": 0,
      "bufferView": 65
    },
    {
      "type": "VEC2",
      "componentType": 5123,
      "count": 20,
      "normalized": true,
      "byteOffset": 0,
      "bufferView": 66
    },
    {
      "type": "VEC3",
      "componentType": 5122,
      "count": 98,
      "max": [32767, 28419, 4800],
      "min": [-32767, -28419, -4800],
      "normalized": true,
      "byteOffset": 0,
      "bufferView": 67
    },
    {
      "type": "VEC3",
      "componentType": 5122,
      "count": 98,
      "normalized": true,
      "byteOffset": 0,
      "bufferView": 68
    },
    {
      "type": "VEC2",
      "componentType": 5123,
      "count": 98,
      "normalized": true,
      "byteOffset": 0,
      "bufferView": 69
    },
    {
      "type": "VEC2",
      "componentType": 5123,
      "count": 98,
      "normalized": true,
      "byteOffset": 0,
      "bufferView": 70
    },
    {
      "type": "VEC3",
      "componentType": 5122,
      "count": 4,
      "max": [0, 17218, 32767],
      "min": [0, -17218, -32767],
      "normalized": true,
      "byteOffset": 0,
      "bufferView": 71
    },
    {
      "type": "VEC3",
      "componentType": 5122,
      "count": 4,
      "normalized": true,
      "byteOffset": 0,
      "bufferView": 72
    },
    {
      "type": "VEC2",
      "componentType": 5123,
      "count": 4,
      "normalized": true,
      "byteOffset": 0,
      "bufferView": 73
    },
    {
      "type": "VEC3",
      "componentType": 5122,
      "count": 80,
      "max": [23038, 32767, 8325],
      "min": [-23038, -32767, -8325],
      "normalized": true,
      "byteOffset": 0,
      "bufferView": 74
    },
    {
      "type": "VEC3",
      "componentType": 5122,
      "count": 80,
      "normalized": true,
      "byteOffset": 0,
      "bufferView": 75
    },
    {
      "type": "VEC2",
      "componentType": 5123,
      "count": 80,
      "normalized": true,
      "byteOffset": 0,
      "bufferView": 76
    },
    {
      "type": "VEC3",
      "componentType": 5122,
      "count": 28,
      "max": [32767, 24022, 6508],
      "min": [-32767, -24022, -6508],
      "normalized": true,
      "byteOffset": 0,
      "bufferView": 77
    },
    {
      "type": "VEC3",
      "componentType": 5122,
      "count": 28,
      "normalized": true,
      "byteOffset": 0,
      "bufferView": 78
    },
    {
      "type": "VEC2",
      "componentType": 5123,
      "count": 28,
      "normalized": true,
      "byteOffset": 0,
      "bufferView": 79
    },
    {
      "type": "VEC3",
      "componentType": 5122,
      "count": 444,
      "max": [7344, 21706, 32767],
      "min": [-7344, -21706, -32767],
      "normalized": true,
      "byteOffset": 0,
      "bufferView": 80
    },
    {
      "type": "VEC3",
      "componentType": 5122,
      "count": 444,
      "normalized": true,
      "byteOffset": 0,
      "bufferView": 81
    },
    {
      "type": "VEC2",
      "componentType": 5123,
      "count": 444,
      "normalized": true,
      "byteOffset": 0,
      "bufferView": 82
    },
    {
      "type": "VEC2",
      "componentType": 5123,
      "count": 444,
      "normalized": true,
      "byteOffset": 0,
      "bufferView": 83
    },
    {
      "type": "VEC3",
      "componentType": 5122,
      "count": 4,
      "max": [644, 18958, 32767],
      "min": [-644, -18958, -32767],
      "normalized": true,
      "byteOffset": 0,
      "bufferView": 84
    },
    {
      "type": "VEC3",
      "componentType": 5122,
      "count": 4,
      "normalized": true,
      "byteOffset": 0,
      "bufferView": 85
    },
    {
      "type": "VEC2",
      "componentType": 5123,
      "count": 4,
      "normalized": true,
      "byteOffset": 0,
      "bufferView": 86
    },
    {
      "type": "VEC3",
      "componentType": 5122,
      "count": 4,
      "max": [31751, 32767, 0],
      "min": [-31751, -32767, 0],
      "normalized": true,
      "byteOffset": 0,
      "bufferView": 87
    },
    {
      "type": "VEC3",
      "componentType": 5122,
      "count": 4,
      "normalized": true,
      "byteOffset": 0,
      "bufferView": 88
    }
  ],
  "bufferViews": [
    {
      "buffer": 1,
      "byteOffset": 0,
      "byteLength": 76746,
      "target": 34963,
      "extensions": {
        "EXT_meshopt_compression": {
          "buffer": 0,
          "byteOffset": 0,
          "byteLength": 13168,
          "mode": "TRIANGLES",
          "byteStride": 2,
          "count": 38373
        }
      }
    },
    {
      "buffer": 1,
      "byteOffset": 76748,
      "byteLength": 352,
      "target": 34962,
      "byteStride": 8,
      "extensions": {
        "EXT_meshopt_compression": {
          "buffer": 0,
          "byteOffset": 13168,
          "byteLength": 287,
          "mode": "ATTRIBUTES",
          "byteStride": 8,
          "count": 44
        }
      }
    },
    {
      "buffer": 1,
      "byteOffset": 77100,
      "byteLength": 352,
      "target": 34962,
      "byteStride": 8,
      "extensions": {
        "EXT_meshopt_compression": {
          "buffer": 0,
          "byteOffset": 13456,
          "byteLength": 314,
          "mode": "ATTRIBUTES",
          "byteStride": 8,
          "count": 44
        }
      }
    },
    {
      "buffer": 1,
      "byteOffset": 77452,
      "byteLength": 56,
      "target": 34962,
      "byteStride": 8,
      "extensions": {
        "EXT_meshopt_compression": {
          "buffer": 0,
          "byteOffset": 13772,
          "byteLength": 96,
          "mode": "ATTRIBUTES",
          "byteStride": 8,
          "count": 7
        }
      }
    },
    {
      "buffer": 1,
      "byteOffset": 77508,
      "byteLength": 160,
      "target": 34962,
      "byteStride": 8,
      "extensions": {
        "EXT_meshopt_compression": {
          "buffer": 0,
          "byteOffset": 13868,
          "byteLength": 139,
          "mode": "ATTRIBUTES",
          "byteStride": 8,
          "count": 20
        }
      }
    },
    {
      "buffer": 1,
      "byteOffset": 77668,
      "byteLength": 32,
      "target": 34962,
      "byteStride": 8,
      "extensions": {
        "EXT_meshopt_compression": {
          "buffer": 0,
          "byteOffset": 14008,
          "byteLength": 85,
          "mode": "ATTRIBUTES",
          "byteStride": 8,
          "count": 4
        }
      }
    },
    {
      "buffer": 1,
      "byteOffset": 77700,
      "byteLength": 640,
      "target": 34962,
      "byteStride": 8,
      "extensions": {
        "EXT_meshopt_compression": {
          "buffer": 0,
          "byteOffset": 14096,
          "byteLength": 519,
          "mode": "ATTRIBUTES",
          "byteStride": 8,
          "count": 80
        }
      }
    },
    {
      "buffer": 1,
      "byteOffset": 78340,
      "byteLength": 224,
      "target": 34962,
      "byteStride": 8,
      "extensions": {
        "EXT_meshopt_compression": {
          "buffer": 0,
          "byteOffset": 14616,
          "byteLength": 197,
          "mode": "ATTRIBUTES",
          "byteStride": 8,
          "count": 28
        }
      }
    },
    {
      "buffer": 1,
      "byteOffset": 78564,
      "byteLength": 960,
      "target": 34962,
      "byteStride": 8,
      "extensions": {
        "EXT_meshopt_compression": {
          "buffer": 0,
          "byteOffset": 14816,
          "byteLength": 785,
          "mode": "ATTRIBUTES",
          "byteStride": 8,
          "count": 120
        }
      }
    },
    {
      "buffer": 1,
      "byteOffset": 79524,
      "byteLength": 960,
      "target": 34962,
      "byteStride": 8,
      "extensions": {
        "EXT_meshopt_compression": {
          "buffer": 0,
          "byteOffset": 15604,
          "byteLength": 723,
          "mode": "ATTRIBUTES",
          "byteStride": 8,
          "count": 120
        }
      }
    },
    {
      "buffer": 1,
      "byteOffset": 80484,
      "byteLength": 480,
      "target": 34962,
      "byteStride": 4,
      "extensions": {
        "EXT_meshopt_compression": {
          "buffer": 0,
          "byteOffset": 16328,
          "byteLength": 445,
          "mode": "ATTRIBUTES",
          "byteStride": 4,
          "count": 120
        }
      }
    },
    {
      "buffer": 1,
      "byteOffset": 80964,
      "byteLength": 480,
      "target": 34962,
      "byteStride": 4,
      "extensions": {
        "EXT_meshopt_compression": {
          "buffer": 0,
          "byteOffset": 16776,
          "byteLength": 504,
          "mode": "ATTRIBUTES",
          "byteStride": 4,
          "count": 120
        }
      }
    },
    {
      "buffer": 1,
      "byteOffset": 81444,
      "byteLength": 1848,
      "target": 34962,
      "byteStride": 8,
      "extensions": {
        "EXT_meshopt_compression": {
          "buffer": 0,
          "byteOffset": 17280,
          "byteLength": 1372,
          "mode": "ATTRIBUTES",
          "byteStride": 8,
          "count": 231
        }
      }
    },
    {
      "buffer": 1,
      "byteOffset": 83292,
      "byteLength": 1848,
      "target": 34962,
      "byteStride": 8,
      "extensions": {
        "EXT_meshopt_compression": {
          "buffer": 0,
          "byteOffset": 18652,
          "byteLength": 1330,
          "mode": "ATTRIBUTES",
          "byteStride": 8,
          "count": 231
        }
      }
    },
    {
      "buffer": 1,
      "byteOffset": 85140,
      "byteLength": 924,
      "target": 34962,
      "byteStride": 4,
      "extensions": {
        "EXT_meshopt_compression": {
          "buffer": 0,
          "byteOffset": 19984,
          "byteLength": 804,
          "mode": "ATTRIBUTES",
          "byteStride": 4,
          "count": 231
        }
      }
    },
    {
      "buffer": 1,
      "byteOffset": 86064,
      "byteLength": 924,
      "target": 34962,
      "byteStride": 4,
      "extensions": {
        "EXT_meshopt_compression": {
          "buffer": 0,
          "byteOffset": 20788,
          "byteLength": 907,
          "mode": "ATTRIBUTES",
          "byteStride": 4,
          "count": 231
        }
      }
    },
    {
      "buffer": 1,
      "byteOffset": 86988,
      "byteLength": 2840,
      "target": 34962,
      "byteStride": 8,
      "extensions": {
        "EXT_meshopt_compression": {
          "buffer": 0,
          "byteOffset": 21696,
          "byteLength": 2228,
          "mode": "ATTRIBUTES",
          "byteStride": 8,
          "count": 355
        }
      }
    },
    {
      "buffer": 1,
      "byteOffset": 89828,
      "byteLength": 2840,
      "target": 34962,
      "byteStride": 8,
      "extensions": {
        "EXT_meshopt_compression": {
          "buffer": 0,
          "byteOffset": 23924,
          "byteLength": 2041,
          "mode": "ATTRIBUTES",
          "byteStride": 8,
          "count": 355
        }
      }
    },
    {
      "buffer": 1,
      "byteOffset": 92668,
      "byteLength": 1420,
      "target": 34962,
      "byteStride": 4,
      "extensions": {
        "EXT_meshopt_compression": {
          "buffer": 0,
          "byteOffset": 25968,
          "byteLength": 1160,
          "mode": "ATTRIBUTES",
          "byteStride": 4,
          "count": 355
        }
      }
    },
    {
      "buffer": 1,
      "byteOffset": 94088,
      "byteLength": 1420,
      "target": 34962,
      "byteStride": 4,
      "extensions": {
        "EXT_meshopt_compression": {
          "buffer": 0,
          "byteOffset": 27128,
          "byteLength": 1267,
          "mode": "ATTRIBUTES",
          "byteStride": 4,
          "count": 355
        }
      }
    },
    {
      "buffer": 1,
      "byteOffset": 95508,
      "byteLength": 2272,
      "target": 34962,
      "byteStride": 8,
      "extensions": {
        "EXT_meshopt_compression": {
          "buffer": 0,
          "byteOffset": 28396,
          "byteLength": 1794,
          "mode": "ATTRIBUTES",
          "byteStride": 8,
          "count": 284
        }
      }
    },
    {
      "buffer": 1,
      "byteOffset": 97780,
      "byteLength": 2272,
      "target": 34962,
      "byteStride": 8,
      "extensions": {
        "EXT_meshopt_compression": {
          "buffer": 0,
          "byteOffset": 30192,
          "byteLength": 1698,
          "mode": "ATTRIBUTES",
          "byteStride": 8,
          "count": 284
        }
      }
    },
    {
      "buffer": 1,
      "byteOffset": 100052,
      "byteLength": 1136,
      "target": 34962,
      "byteStride": 4,
      "extensions": {
        "EXT_meshopt_compression": {
          "buffer": 0,
          "byteOffset": 31892,
          "byteLength": 979,
          "mode": "ATTRIBUTES",
          "byteStride": 4,
          "count": 284
        }
      }
    },
    {
      "buffer": 1,
      "byteOffset": 101188,
      "byteLength": 1136,
      "target": 34962,
      "byteStride": 4,
      "extensions": {
        "EXT_meshopt_compression": {
          "buffer": 0,
          "byteOffset": 32872,
          "byteLength": 1061,
          "mode": "ATTRIBUTES",
          "byteStride": 4,
          "count": 284
        }
      }
    },
    {
      "buffer": 1,
      "byteOffset": 102324,
      "byteLength": 2584,
      "target": 34962,
      "byteStride": 8,
      "extensions": {
        "EXT_meshopt_compression": {
          "buffer": 0,
          "byteOffset": 33936,
          "byteLength": 2028,
          "mode": "ATTRIBUTES",
          "byteStride": 8,
          "count": 323
        }
      }
    },
    {
      "buffer": 1,
      "byteOffset": 104908,
      "byteLength": 2584,
      "target": 34962,
      "byteStride": 8,
      "extensions": {
        "EXT_meshopt_compression": {
          "buffer": 0,
          "byteOffset": 35964,
          "byteLength": 1918,
          "mode": "ATTRIBUTES",
          "byteStride": 8,
          "count": 323
        }
      }
    },
    {
      "buffer": 1,
      "byteOffset": 107492,
      "byteLength": 1292,
      "target": 34962,
      "byteStride": 4,
      "extensions": {
        "EXT_meshopt_compression": {
          "buffer": 0,
          "byteOffset": 37884,
          "byteLength": 1074,
          "mode": "ATTRIBUTES",
          "byteStride": 4,
          "count": 323
        }
      }
    },
    {
      "buffer": 1,
      "byteOffset": 108784,
      "byteLength": 1292,
      "target": 34962,
      "byteStride": 4,
      "extensions": {
        "EXT_meshopt_compression": {
          "buffer": 0,
          "byteOffset": 38960,
          "byteLength": 1186,
          "mode": "ATTRIBUTES",
          "byteStride": 4,
          "count": 323
        }
      }
    },
    {
      "buffer": 1,
      "byteOffset": 110076,
      "byteLength": 968,
      "target": 34962,
      "byteStride": 8,
      "extensions": {
        "EXT_meshopt_compression": {
          "buffer": 0,
          "byteOffset": 40148,
          "byteLength": 690,
          "mode": "ATTRIBUTES",
          "byteStride": 8,
          "count": 121
        }
      }
    },
    {
      "buffer": 1,
      "byteOffset": 111044,
      "byteLength": 968,
      "target": 34962,
      "byteStride": 8,
      "extensions": {
        "EXT_meshopt_compression": {
          "buffer": 0,
          "byteOffset": 40840,
          "byteLength": 677,
          "mode": "ATTRIBUTES",
          "byteStride": 8,
          "count": 121
        }
      }
    },
    {
      "buffer": 1,
      "byteOffset": 112012,
      "byteLength": 484,
      "target": 34962,
      "byteStride": 4,
      "extensions": {
        "EXT_meshopt_compression": {
          "buffer": 0,
          "byteOffset": 41520,
          "byteLength": 473,
          "mode": "ATTRIBUTES",
          "byteStride": 4,
          "count": 121
        }
      }
    },
    {
      "buffer": 1,
      "byteOffset": 112496,
      "byteLength": 484,
      "target": 34962,
      "byteStride": 4,
      "extensions": {
        "EXT_meshopt_compression": {
          "buffer": 0,
          "byteOffset": 41996,
          "byteLength": 489,
          "mode": "ATTRIBUTES",
          "byteStride": 4,
          "count": 121
        }
      }
    },
    {
      "buffer": 1,
      "byteOffset": 112980,
      "byteLength": 29288,
      "target": 34962,
      "byteStride": 8,
      "extensions": {
        "EXT_meshopt_compression": {
          "buffer": 0,
          "byteOffset": 42488,
          "byteLength": 18353,
          "mode": "ATTRIBUTES",
          "byteStride": 8,
          "count": 3661
        }
      }
    },
    {
      "buffer": 1,
      "byteOffset": 142268,
      "byteLength": 29288,
      "target": 34962,
      "byteStride": 8,
      "extensions": {
        "EXT_meshopt_compression": {
          "buffer": 0,
          "byteOffset": 60844,
          "byteLength": 21200,
          "mode": "ATTRIBUTES",
          "byteStride": 8,
          "count": 3661
        }
      }
    },
    {
      "buffer": 1,
      "byteOffset": 171556,
      "byteLength": 14644,
      "target": 34962,
      "byteStride": 4,
      "extensions": {
        "EXT_meshopt_compression": {
          "buffer": 0,
          "byteOffset": 82044,
          "byteLength": 12342,
          "mode": "ATTRIBUTES",
          "byteStride": 4,
          "count": 3661
        }
      }
    },
    {
      "buffer": 1,
      "byteOffset": 186200,
      "byteLength": 14644,
      "target": 34962,
      "byteStride": 4,
      "extensions": {
        "EXT_meshopt_compression": {
          "buffer": 0,
          "byteOffset": 94388,
          "byteLength": 11228,
          "mode": "ATTRIBUTES",
          "byteStride": 4,
          "count": 3661
        }
      }
    },
    {
      "buffer": 1,
      "byteOffset": 200844,
      "byteLength": 52464,
      "target": 34962,
      "byteStride": 8,
      "extensions": {
        "EXT_meshopt_compression": {
          "buffer": 0,
          "byteOffset": 105616,
          "byteLength": 29651,
          "mode": "ATTRIBUTES",
          "byteStride": 8,
          "count": 6558
        }
      }
    },
    {
      "buffer": 1,
      "byteOffset": 253308,
      "byteLength": 52464,
      "target": 34962,
      "byteStride": 8,
      "extensions": {
        "EXT_meshopt_compression": {
          "buffer": 0,
          "byteOffset": 135268,
          "byteLength": 34473,
          "mode": "ATTRIBUTES",
          "byteStride": 8,
          "count": 6558
        }
      }
    },
    {
      "buffer": 1,
      "byteOffset": 305772,
      "byteLength": 26232,
      "target": 34962,
      "byteStride": 4,
      "extensions": {
        "EXT_meshopt_compression": {
          "buffer": 0,
          "byteOffset": 169744,
          "byteLength": 21279,
          "mode": "ATTRIBUTES",
          "byteStride": 4,
          "count": 6558
        }
      }
    },
    {
      "buffer": 1,
      "byteOffset": 332004,
      "byteLength": 26232,
      "target": 34962,
      "byteStride": 4,
      "extensions": {
        "EXT_meshopt_compression": {
          "buffer": 0,
          "byteOffset": 191024,
          "byteLength": 20622,
          "mode": "ATTRIBUTES",
          "byteStride": 4,
          "count": 6558
        }
      }
    },
    {
      "buffer": 1,
      "byteOffset": 358236,
      "byteLength": 45432,
      "target": 34962,
      "byteStride": 8,
      "extensions": {
        "EXT_meshopt_compression": {
          "buffer": 0,
          "byteOffset": 211648,
          "byteLength": 29428,
          "mode": "ATTRIBUTES",
          "byteStride": 8,
          "count": 5679
        }
      }
    },
    {
      "buffer": 1,
      "byteOffset": 403668,
      "byteLength": 45432,
      "target": 34962,
      "byteStride": 8,
      "extensions": {
        "EXT_meshopt_compression": {
          "buffer": 0,
          "byteOffset": 241076,
          "byteLength": 32077,
          "mode": "ATTRIBUTES",
          "byteStride": 8,
          "count": 5679
        }
      }
    },
    {
      "buffer": 1,
      "byteOffset": 449100,
      "byteLength": 22716,
      "target": 34962,
      "byteStride": 4,
      "extensions": {
        "EXT_meshopt_compression": {
          "buffer": 0,
          "byteOffset": 273156,
          "byteLength": 19077,
          "mode": "ATTRIBUTES",
          "byteStride": 4,
          "count": 5679
        }
      }
    },
    {
      "buffer": 1,
      "byteOffset": 471816,
      "byteLength": 22716,
      "target": 34962,
      "byteStride": 4,
      "extensions": {
        "EXT_meshopt_compression": {
          "buffer": 0,
          "byteOffset": 292236,
          "byteLength": 17227,
          "mode": "ATTRIBUTES",
          "byteStride": 4,
          "count": 5679
        }
      }
    },
    {
      "buffer": 1,
      "byteOffset": 494532,
      "byteLength": 12176,
      "target": 34962,
      "byteStride": 8,
      "extensions": {
        "EXT_meshopt_compression": {
          "buffer": 0,
          "byteOffset": 309464,
          "byteLength": 7329,
          "mode": "ATTRIBUTES",
          "byteStride": 8,
          "count": 1522
        }
      }
    },
    {
      "buffer": 1,
      "byteOffset": 506708,
      "byteLength": 12176,
      "target": 34962,
      "byteStride": 8,
      "extensions": {
        "EXT_meshopt_compression": {
          "buffer": 0,
          "byteOffset": 316796,
          "byteLength": 8528,
          "mode": "ATTRIBUTES",
          "byteStride": 8,
          "count": 1522
        }
      }
    },
    {
      "buffer": 1,
      "byteOffset": 518884,
      "byteLength": 6088,
      "target": 34962,
      "byteStride": 4,
      "extensions": {
        "EXT_meshopt_compression": {
          "buffer": 0,
          "byteOffset": 325324,
          "byteLength": 5501,
          "mode": "ATTRIBUTES",
          "byteStride": 4,
          "count": 1522
        }
      }
    },
    {
      "buffer": 1,
      "byteOffset": 524972,
      "byteLength": 6088,
      "target": 34962,
      "byteStride": 4,
      "extensions": {
        "EXT_meshopt_compression": {
          "buffer": 0,
          "byteOffset": 330828,
          "byteLength": 4860,
          "mode": "ATTRIBUTES",
          "byteStride": 4,
          "count": 1522
        }
      }
    },
    {
      "buffer": 1,
      "byteOffset": 531060,
      "byteLength": 352,
      "target": 34962,
      "byteStride": 8,
      "extensions": {
        "EXT_meshopt_compression": {
          "buffer": 0,
          "byteOffset": 335688,
          "byteLength": 200,
          "mode": "ATTRIBUTES",
          "byteStride": 8,
          "count": 44
        }
      }
    },
    {
      "buffer": 1,
      "byteOffset": 531412,
      "byteLength": 352,
      "target": 34962,
      "byteStride": 8,
      "extensions": {
        "EXT_meshopt_compression": {
          "buffer": 0,
          "byteOffset": 335888,
          "byteLength": 109,
          "mode": "ATTRIBUTES",
          "byteStride": 8,
          "count": 44
        }
      }
    },
    {
      "buffer": 1,
      "byteOffset": 531764,
      "byteLength": 176,
      "target": 34962,
      "byteStride": 4,
      "extensions": {
        "EXT_meshopt_compression": {
          "buffer": 0,
          "byteOffset": 336000,
          "byteLength": 179,
          "mode": "ATTRIBUTES",
          "byteStride": 4,
          "count": 44
        }
      }
    },
    {
      "buffer": 1,
      "byteOffset": 531940,
      "byteLength": 352,
      "target": 34962,
      "byteStride": 8,
      "extensions": {
        "EXT_meshopt_compression": {
          "buffer": 0,
          "byteOffset": 336180,
          "byteLength": 220,
          "mode": "ATTRIBUTES",
          "byteStride": 8,
          "count": 44
        }
      }
    },
    {
      "buffer": 1,
      "byteOffset": 532292,
      "byteLength": 352,
      "target": 34962,
      "byteStride": 8,
      "extensions": {
        "EXT_meshopt_compression": {
          "buffer": 0,
          "byteOffset": 336400,
          "byteLength": 121,
          "mode": "ATTRIBUTES",
          "byteStride": 8,
          "count": 44
        }
      }
    },
    {
      "buffer": 1,
      "byteOffset": 532644,
      "byteLength": 176,
      "target": 34962,
      "byteStride": 4,
      "extensions": {
        "EXT_meshopt_compression": {
          "buffer": 0,
          "byteOffset": 336524,
          "byteLength": 184,
          "mode": "ATTRIBUTES",
          "byteStride": 4,
          "count": 44
        }
      }
    },
    {
      "buffer": 1,
      "byteOffset": 532820,
      "byteLength": 64,
      "target": 34962,
      "byteStride": 8,
      "extensions": {
        "EXT_meshopt_compression": {
          "buffer": 0,
          "byteOffset": 336708,
          "byteLength": 81,
          "mode": "ATTRIBUTES",
          "byteStride": 8,
          "count": 8
        }
      }
    },
    {
      "buffer": 1,
      "byteOffset": 532884,
      "byteLength": 64,
      "target": 34962,
      "byteStride": 8,
      "extensions": {
        "EXT_meshopt_compression": {
          "buffer": 0,
          "byteOffset": 336792,
          "byteLength": 59,
          "mode": "ATTRIBUTES",
          "byteStride": 8,
          "count": 8
        }
      }
    },
    {
      "buffer": 1,
      "byteOffset": 532948,
      "byteLength": 32,
      "target": 34962,
      "byteStride": 4,
      "extensions": {
        "EXT_meshopt_compression": {
          "buffer": 0,
          "byteOffset": 336852,
          "byteLength": 61,
          "mode": "ATTRIBUTES",
          "byteStride": 4,
          "count": 8
        }
      }
    },
    {
      "buffer": 1,
      "byteOffset": 532980,
      "byteLength": 32,
      "target": 34962,
      "byteStride": 4,
      "extensions": {
        "EXT_meshopt_compression": {
          "buffer": 0,
          "byteOffset": 336916,
          "byteLength": 69,
          "mode": "ATTRIBUTES",
          "byteStride": 4,
          "count": 8
        }
      }
    },
    {
      "buffer": 1,
      "byteOffset": 533012,
      "byteLength": 56,
      "target": 34962,
      "byteStride": 8,
      "extensions": {
        "EXT_meshopt_compression": {
          "buffer": 0,
          "byteOffset": 336988,
          "byteLength": 68,
          "mode": "ATTRIBUTES",
          "byteStride": 8,
          "count": 7
        }
      }
    },
    {
      "buffer": 1,
      "byteOffset": 533068,
      "byteLength": 56,
      "target": 34962,
      "byteStride": 8,
      "extensions": {
        "EXT_meshopt_compression": {
          "buffer": 0,
          "byteOffset": 337056,
          "byteLength": 41,
          "mode": "ATTRIBUTES",
          "byteStride": 8,
          "count": 7
        }
      }
    },
    {
      "buffer": 1,
      "byteOffset": 533124,
      "byteLength": 28,
      "target": 34962,
      "byteStride": 4,
      "extensions": {
        "EXT_meshopt_compression": {
          "buffer": 0,
          "byteOffset": 337100,
          "byteLength": 65,
          "mode": "ATTRIBUTES",
          "byteStride": 4,
          "count": 7
        }
      }
    },
    {
      "buffer": 1,
      "byteOffset": 533152,
      "byteLength": 1568,
      "target": 34962,
      "byteStride": 8,
      "extensions": {
        "EXT_meshopt_compression": {
          "buffer": 0,
          "byteOffset": 337168,
          "byteLength": 690,
          "mode": "ATTRIBUTES",
          "byteStride": 8,
          "count": 196
        }
      }
    },
    {
      "buffer": 1,
      "byteOffset": 534720,
      "byteLength": 1568,
      "target": 34962,
      "byteStride": 8,
      "extensions": {
        "EXT_meshopt_compression": {
          "buffer": 0,
          "byteOffset": 337860,
          "byteLength": 1149,
          "mode": "ATTRIBUTES",
          "byteStride": 8,
          "count": 196
        }
      }
    },
    {
      "buffer": 1,
      "byteOffset": 536288,
      "byteLength": 784,
      "target": 34962,
      "byteStride": 4,
      "extensions": {
        "EXT_meshopt_compression": {
          "buffer": 0,
          "byteOffset": 339012,
          "byteLength": 661,
          "mode": "ATTRIBUTES",
          "byteStride": 4,
          "count": 196
        }
      }
    },
    {
      "buffer": 1,
      "byteOffset": 537072,
      "byteLength": 160,
      "target": 34962,
      "byteStride": 8,
      "extensions": {
        "EXT_meshopt_compression": {
          "buffer": 0,
          "byteOffset": 339676,
          "byteLength": 116,
          "mode": "ATTRIBUTES",
          "byteStride": 8,
          "count": 20
        }
      }
    },
    {
      "buffer": 1,
      "byteOffset": 537232,
      "byteLength": 160,
      "target": 34962,
      "byteStride": 8,
      "extensions": {
        "EXT_meshopt_compression": {
          "buffer": 0,
          "byteOffset": 339792,
          "byteLength": 81,
          "mode": "ATTRIBUTES",
          "byteStride": 8,
          "count": 20
        }
      }
    },
    {
      "buffer": 1,
      "byteOffset": 537392,
      "byteLength": 80,
      "target": 34962,
      "byteStride": 4,
      "extensions": {
        "EXT_meshopt_compression": {
          "buffer": 0,
          "byteOffset": 339876,
          "byteLength": 103,
          "mode": "ATTRIBUTES",
          "byteStride": 4,
          "count": 20
        }
      }
    },
    {
      "buffer": 1,
      "byteOffset": 537472,
      "byteLength": 784,
      "target": 34962,
      "byteStride": 8,
      "extensions": {
        "EXT_meshopt_compression": {
          "buffer": 0,
          "byteOffset": 339980,
          "byteLength": 466,
          "mode": "ATTRIBUTES",
          "byteStride": 8,
          "count": 98
        }
      }
    },
    {
      "buffer": 1,
      "byteOffset": 538256,
      "byteLength": 784,
      "target": 34962,
      "byteStride": 8,
      "extensions": {
        "EXT_meshopt_compression": {
          "buffer": 0,
          "byteOffset": 340448,
          "byteLength": 154,
          "mode": "ATTRIBUTES",
          "byteStride": 8,
          "count": 98
        }
      }
    },
    {
      "buffer": 1,
      "byteOffset": 539040,
      "byteLength": 392,
      "target": 34962,
      "byteStride": 4,
      "extensions": {
        "EXT_meshopt_compression": {
          "buffer": 0,
          "byteOffset": 340604,
          "byteLength": 291,
          "mode": "ATTRIBUTES",
          "byteStride": 4,
          "count": 98
        }
      }
    },
    {
      "buffer": 1,
      "byteOffset": 539432,
      "byteLength": 392,
      "target": 34962,
      "byteStride": 4,
      "extensions": {
        "EXT_meshopt_compression": {
          "buffer": 0,
          "byteOffset": 340896,
          "byteLength": 310,
          "mode": "ATTRIBUTES",
          "byteStride": 4,
          "count": 98
        }
      }
    },
    {
      "buffer": 1,
      "byteOffset": 539824,
      "byteLength": 32,
      "target": 34962,
      "byteStride": 8,
      "extensions": {
        "EXT_meshopt_compression": {
          "buffer": 0,
          "byteOffset": 341208,
          "byteLength": 62,
          "mode": "ATTRIBUTES",
          "byteStride": 8,
          "count": 4
        }
      }
    },
    {
      "buffer": 1,
      "byteOffset": 539856,
      "byteLength": 32,
      "target": 34962,
      "byteStride": 8,
      "extensions": {
        "EXT_meshopt_compression": {
          "buffer": 0,
          "byteOffset": 341272,
          "byteLength": 41,
          "mode": "ATTRIBUTES",
          "byteStride": 8,
          "count": 4
        }
      }
    },
    {
      "buffer": 1,
      "byteOffset": 539888,
      "byteLength": 16,
      "target": 34962,
      "byteStride": 4,
      "extensions": {
        "EXT_meshopt_compression": {
          "buffer": 0,
          "byteOffset": 341316,
          "byteLength": 59,
          "mode": "ATTRIBUTES",
          "byteStride": 4,
          "count": 4
        }
      }
    },
    {
      "buffer": 1,
      "byteOffset": 539904,
      "byteLength": 640,
      "target": 34962,
      "byteStride": 8,
      "extensions": {
        "EXT_meshopt_compression": {
          "buffer": 0,
          "byteOffset": 341376,
          "byteLength": 393,
          "mode": "ATTRIBUTES",
          "byteStride": 8,
          "count": 80
        }
      }
    },
    {
      "buffer": 1,
      "byteOffset": 540544,
      "byteLength": 640,
      "target": 34962,
      "byteStride": 8,
      "extensions": {
        "EXT_meshopt_compression": {
          "buffer": 0,
          "byteOffset": 341772,
          "byteLength": 241,
          "mode": "ATTRIBUTES",
          "byteStride": 8,
          "count": 80
        }
      }
    },
    {
      "buffer": 1,
      "byteOffset": 541184,
      "byteLength": 320,
      "target": 34962,
      "byteStride": 4,
      "extensions": {
        "EXT_meshopt_compression": {
          "buffer": 0,
          "byteOffset": 342016,
          "byteLength": 258,
          "mode": "ATTRIBUTES",
          "byteStride": 4,
          "count": 80
        }
      }
    },
    {
      "buffer": 1,
      "byteOffset": 541504,
      "byteLength": 224,
      "target": 34962,
      "byteStride": 8,
      "extensions": {
        "EXT_meshopt_compression": {
          "buffer": 0,
          "byteOffset": 342276,
          "byteLength": 156,
          "mode": "ATTRIBUTES",
          "byteStride": 8,
          "count": 28
        }
      }
    },
    {
      "buffer": 1,
      "byteOffset": 541728,
      "byteLength": 224,
      "target": 34962,
      "byteStride": 8,
      "extensions": {
        "EXT_meshopt_compression": {
          "buffer": 0,
          "byteOffset": 342432,
          "byteLength": 102,
          "mode": "ATTRIBUTES",
          "byteStride": 8,
          "count": 28
        }
      }
    },
    {
      "buffer": 1,
      "byteOffset": 541952,
      "byteLength": 112,
      "target": 34962,
      "byteStride": 4,
      "extensions": {
        "EXT_meshopt_compression": {
          "buffer": 0,
          "byteOffset": 342536,
          "byteLength": 135,
          "mode": "ATTRIBUTES",
          "byteStride": 4,
          "count": 28
        }
      }
    },
    {
      "buffer": 1,
      "byteOffset": 542064,
      "byteLength": 3552,
      "target": 34962,
      "byteStride": 8,
      "extensions": {
        "EXT_meshopt_compression": {
          "buffer": 0,
          "byteOffset": 342672,
          "byteLength": 2420,
          "mode": "ATTRIBUTES",
          "byteStride": 8,
          "count": 444
        }
      }
    },
    {
      "buffer": 1,
      "byteOffset": 545616,
      "byteLength": 3552,
      "target": 34962,
      "byteStride": 8,
      "extensions": {
        "EXT_meshopt_compression": {
          "buffer": 0,
          "byteOffset": 345092,
          "byteLength": 2517,
          "mode": "ATTRIBUTES",
          "byteStride": 8,
          "count": 444
        }
      }
    },
    {
      "buffer": 1,
      "byteOffset": 549168,
      "byteLength": 1776,
      "target": 34962,
      "byteStride": 4,
      "extensions": {
        "EXT_meshopt_compression": {
          "buffer": 0,
          "byteOffset": 347612,
          "byteLength": 1465,
          "mode": "ATTRIBUTES",
          "byteStride": 4,
          "count": 444
        }
      }
    },
    {
      "buffer": 1,
      "byteOffset": 550944,
      "byteLength": 1776,
      "target": 34962,
      "byteStride": 4,
      "extensions": {
        "EXT_meshopt_compression": {
          "buffer": 0,
          "byteOffset": 349080,
          "byteLength": 1411,
          "mode": "ATTRIBUTES",
          "byteStride": 4,
          "count": 444
        }
      }
    },
    {
      "buffer": 1,
      "byteOffset": 552720,
      "byteLength": 32,
      "target": 34962,
      "byteStride": 8,
      "extensions": {
        "EXT_meshopt_compression": {
          "buffer": 0,
          "byteOffset": 350492,
          "byteLength": 74,
          "mode": "ATTRIBUTES",
          "byteStride": 8,
          "count": 4
        }
      }
    },
    {
      "buffer": 1,
      "byteOffset": 552752,
      "byteLength": 32,
      "target": 34962,
      "byteStride": 8,
      "extensions": {
        "EXT_meshopt_compression": {
          "buffer": 0,
          "byteOffset": 350568,
          "byteLength": 41,
          "mode": "ATTRIBUTES",
          "byteStride": 8,
          "count": 4
        }
      }
    },
    {
      "buffer": 1,
      "byteOffset": 552784,
      "byteLength": 16,
      "target": 34962,
      "byteStride": 4,
      "extensions": {
        "EXT_meshopt_compression": {
          "buffer": 0,
          "byteOffset": 350612,
          "byteLength": 53,
          "mode": "ATTRIBUTES",
          "byteStride": 4,
          "count": 4
        }
      }
    },
    {
      "buffer": 1,
      "byteOffset": 552800,
      "byteLength": 32,
      "target": 34962,
      "byteStride": 8,
      "extensions": {
        "EXT_meshopt_compression": {
          "buffer": 0,
          "byteOffset": 350668,
          "byteLength": 62,
          "mode": "ATTRIBUTES",
          "byteStride": 8,
          "count": 4
        }
      }
    },
    {
      "buffer": 1,
      "byteOffset": 552832,
      "byteLength": 32,
      "target": 34962,
      "byteStride": 8,
      "extensions": {
        "EXT_meshopt_compression": {
          "buffer": 0,
          "byteOffset": 350732,
          "byteLength": 41,
          "mode": "ATTRIBUTES",
          "byteStride": 8,
          "count": 4
        }
      }
    }
  ],
  "samplers": [
    { "magFilter": 9729, "minFilter": 9987, "wrapS": 10497, "wrapT": 10497 },
    { "magFilter": 9729, "minFilter": 9987, "wrapS": 33071, "wrapT": 33071 }
  ],
  "textures": [
    { "sampler": 0, "extensions": { "KHR_texture_basisu": { "source": 1 } } },
    { "sampler": 0, "extensions": { "KHR_texture_basisu": { "source": 0 } } },
    { "sampler": 0, "extensions": { "KHR_texture_basisu": { "source": 2 } } },
    { "sampler": 0, "extensions": { "KHR_texture_basisu": { "source": 4 } } },
    { "sampler": 0, "extensions": { "KHR_texture_basisu": { "source": 3 } } },
    { "sampler": 0, "extensions": { "KHR_texture_basisu": { "source": 5 } } },
    { "sampler": 0, "extensions": { "KHR_texture_basisu": { "source": 7 } } },
    { "sampler": 0, "extensions": { "KHR_texture_basisu": { "source": 6 } } },
    { "sampler": 0, "extensions": { "KHR_texture_basisu": { "source": 8 } } },
    { "sampler": 0, "extensions": { "KHR_texture_basisu": { "source": 10 } } },
    { "sampler": 0, "extensions": { "KHR_texture_basisu": { "source": 9 } } },
    { "sampler": 0, "extensions": { "KHR_texture_basisu": { "source": 11 } } },
    { "sampler": 0, "extensions": { "KHR_texture_basisu": { "source": 13 } } },
    { "sampler": 0, "extensions": { "KHR_texture_basisu": { "source": 12 } } },
    { "sampler": 0, "extensions": { "KHR_texture_basisu": { "source": 15 } } },
    { "sampler": 0, "extensions": { "KHR_texture_basisu": { "source": 14 } } },
    { "sampler": 0, "extensions": { "KHR_texture_basisu": { "source": 16 } } },
    { "sampler": 0, "extensions": { "KHR_texture_basisu": { "source": 17 } } },
    { "sampler": 0, "extensions": { "KHR_texture_basisu": { "source": 18 } } },
    { "sampler": 1, "extensions": { "KHR_texture_basisu": { "source": 19 } } }
  ],
  "images": [
    { "name": "atlas-a-normal", "mimeType": "image/ktx2", "uri": "tex/atlas-a-normal.ktx2" },
    { "name": "atlas-a-color", "mimeType": "image/ktx2", "uri": "tex/atlas-a-color.ktx2" },
    { "name": "atlas-a-orm", "mimeType": "image/ktx2", "uri": "tex/atlas-a-orm.ktx2" },
    { "name": "atlas-b-normal", "mimeType": "image/ktx2", "uri": "tex/atlas-b-normal.ktx2" },
    { "name": "atlas-b-color", "mimeType": "image/ktx2", "uri": "tex/atlas-b-color.ktx2" },
    { "name": "atlas-b-orm", "mimeType": "image/ktx2", "uri": "tex/atlas-b-orm.ktx2" },
    { "name": "atlas-c-normal", "mimeType": "image/ktx2", "uri": "tex/atlas-c-normal.ktx2" },
    { "name": "atlas-c-color", "mimeType": "image/ktx2", "uri": "tex/atlas-c-color.ktx2" },
    { "name": "atlas-c-orm", "mimeType": "image/ktx2", "uri": "tex/atlas-c-orm.ktx2" },
    { "name": "atlas-d-normal", "mimeType": "image/ktx2", "uri": "tex/atlas-d-normal.ktx2" },
    { "name": "atlas-d-color", "mimeType": "image/ktx2", "uri": "tex/atlas-d-color.ktx2" },
    { "name": "atlas-d-orm", "mimeType": "image/ktx2", "uri": "tex/atlas-d-orm.ktx2" },
    { "name": "ceiling-normal", "mimeType": "image/ktx2", "uri": "tex/ceiling-normal.ktx2" },
    { "name": "ceiling-color", "mimeType": "image/ktx2", "uri": "tex/ceiling-color.ktx2" },
    { "name": "walls-normal", "mimeType": "image/ktx2", "uri": "tex/walls-normal.ktx2" },
    { "name": "walls-color", "mimeType": "image/ktx2", "uri": "tex/walls-color.ktx2" },
    { "name": "dark-panel-color", "mimeType": "image/ktx2", "uri": "tex/dark-panel-color.ktx2" },
    { "name": "floor-normal", "mimeType": "image/ktx2", "uri": "tex/floor-normal.ktx2" },
    { "name": "rug-normal", "mimeType": "image/ktx2", "uri": "tex/rug-normal.ktx2" },
    { "name": "window-color", "mimeType": "image/ktx2", "uri": "tex/window-color.ktx2" }
  ],
  "buffers": [
    { "uri": "room.bin", "byteLength": 350776 },
    { "byteLength": 552864, "extensions": { "EXT_meshopt_compression": { "fallback": true } } }
  ],
  "materials": [
    {
      "name": "atlasA_sofa_table",
      "pbrMetallicRoughness": {
        "metallicFactor": 0,
        "baseColorTexture": { "index": 0 },
        "metallicRoughnessTexture": { "index": 2 }
      },
      "normalTexture": { "index": 1 }
    },
    {
      "name": "atlasB_tv_cabinet",
      "pbrMetallicRoughness": {
        "metallicFactor": 0,
        "baseColorTexture": { "index": 3 },
        "metallicRoughnessTexture": { "index": 5 }
      },
      "normalTexture": { "index": 4 }
    },
    {
      "name": "atlasC_plants",
      "doubleSided": true,
      "pbrMetallicRoughness": {
        "metallicFactor": 0,
        "baseColorTexture": { "index": 6 },
        "metallicRoughnessTexture": { "index": 8 }
      },
      "normalTexture": { "index": 7 }
    },
    {
      "name": "atlasD_lamps",
      "pbrMetallicRoughness": {
        "baseColorTexture": { "index": 9 },
        "metallicRoughnessTexture": { "index": 11 }
      },
      "normalTexture": { "index": 10 }
    },
    {
      "name": "ceiling_concrete",
      "pbrMetallicRoughness": { "metallicFactor": 0, "baseColorTexture": { "index": 12 } },
      "normalTexture": { "index": 13, "scale": 0.4999999701976776 }
    },
    {
      "name": "concrete_walls",
      "pbrMetallicRoughness": {
        "roughnessFactor": 0.5,
        "metallicFactor": 0,
        "baseColorTexture": { "index": 14 }
      },
      "normalTexture": { "index": 15, "scale": 1.1999999284744263 }
    },
    {
      "name": "dark_panel",
      "pbrMetallicRoughness": {
        "roughnessFactor": 0.5,
        "metallicFactor": 0,
        "baseColorTexture": { "index": 16 }
      }
    },
    {
      "name": "floor_polished",
      "pbrMetallicRoughness": {
        "baseColorFactor": [0.2609133720397949, 0.2609133720397949, 0.2609133720397949, 1],
        "roughnessFactor": 0.3499999940395355,
        "metallicFactor": 0
      },
      "normalTexture": { "index": 17, "scale": 0.19999998807907104 }
    },
    {
      "name": "metal_pipes",
      "pbrMetallicRoughness": {
        "baseColorFactor": [0.800000011920929, 0.800000011920929, 0.800000011920929, 1],
        "roughnessFactor": 0.23943662643432617
      }
    },
    {
      "name": "rug",
      "pbrMetallicRoughness": {
        "baseColorFactor": [0.21171391010284424, 0.21171391010284424, 0.21171391010284424, 1],
        "metallicFactor": 0
      },
      "normalTexture": { "index": 18, "scale": 0.20000004768371582 }
    },
    {
      "name": "steel_window_frame",
      "pbrMetallicRoughness": {
        "baseColorFactor": [0.3908618986606598, 0.3908618986606598, 0.3908618986606598, 1],
        "roughnessFactor": 0.14788731932640076,
        "metallicFactor": 0.13380281627178192
      }
    },
    {
      "name": "tv_screen",
      "pbrMetallicRoughness": {
        "baseColorFactor": [0.004999999888241291, 0.004999999888241291, 0.006000000052154064, 1],
        "roughnessFactor": 0.15000000596046448,
        "metallicFactor": 0
      }
    },
    {
      "name": "window_mullions",
      "alphaMode": "MASK",
      "alphaCutoff": 0.5,
      "pbrMetallicRoughness": {
        "roughnessFactor": 0.5,
        "metallicFactor": 0,
        "baseColorTexture": { "index": 19 }
      }
    }
  ],
  "meshes": [
    {
      "name": "coffee_table_cup_saucer_mesh",
      "primitives": [
        {
          "attributes": { "POSITION": 28, "NORMAL": 29, "TEXCOORD_0": 30, "TEXCOORD_1": 31 },
          "mode": 4,
          "material": 0,
          "indices": 0
        }
      ]
    },
    {
      "name": "coffee_table_magazine_mesh",
      "primitives": [
        {
          "attributes": { "POSITION": 32, "NORMAL": 33, "TEXCOORD_0": 34, "TEXCOORD_1": 35 },
          "mode": 4,
          "material": 0,
          "indices": 1
        }
      ]
    },
    {
      "name": "coffee_table_pot_A_mesh",
      "primitives": [
        {
          "attributes": { "POSITION": 36, "NORMAL": 37, "TEXCOORD_0": 38, "TEXCOORD_1": 39 },
          "mode": 4,
          "material": 0,
          "indices": 2
        }
      ]
    },
    {
      "name": "coffee_table_pot_B_mesh",
      "primitives": [
        {
          "attributes": { "POSITION": 40, "NORMAL": 41, "TEXCOORD_0": 42, "TEXCOORD_1": 43 },
          "mode": 4,
          "material": 0,
          "indices": 3
        }
      ]
    },
    {
      "name": "coffee_table_pot_C_mesh",
      "primitives": [
        {
          "attributes": { "POSITION": 44, "NORMAL": 45, "TEXCOORD_0": 46, "TEXCOORD_1": 47 },
          "mode": 4,
          "material": 0,
          "indices": 4
        }
      ]
    },
    {
      "name": "coffee_table_top_mesh",
      "primitives": [
        {
          "attributes": { "POSITION": 48, "NORMAL": 49, "TEXCOORD_0": 50, "TEXCOORD_1": 51 },
          "mode": 4,
          "material": 0,
          "indices": 5
        }
      ]
    },
    {
      "name": "room_atlasA_sofa_table_mesh",
      "primitives": [
        {
          "attributes": { "POSITION": 52, "NORMAL": 53, "TEXCOORD_0": 54, "TEXCOORD_1": 55 },
          "mode": 4,
          "material": 0,
          "indices": 6
        }
      ]
    },
    {
      "name": "room_atlasB_tv_cabinet_mesh",
      "primitives": [
        {
          "attributes": { "POSITION": 56, "NORMAL": 57, "TEXCOORD_0": 58, "TEXCOORD_1": 59 },
          "mode": 4,
          "material": 1,
          "indices": 7
        }
      ]
    },
    {
      "name": "room_atlasC_plants_mesh",
      "primitives": [
        {
          "attributes": { "POSITION": 60, "NORMAL": 61, "TEXCOORD_0": 62, "TEXCOORD_1": 63 },
          "mode": 4,
          "material": 2,
          "indices": 8
        }
      ]
    },
    {
      "name": "room_atlasD_lamps_mesh",
      "primitives": [
        {
          "attributes": { "POSITION": 64, "NORMAL": 65, "TEXCOORD_0": 66, "TEXCOORD_1": 67 },
          "mode": 4,
          "material": 3,
          "indices": 9
        }
      ]
    },
    {
      "name": "room_ceiling_concrete_mesh",
      "primitives": [
        {
          "attributes": { "TEXCOORD_0": 11, "POSITION": 68, "NORMAL": 69, "TEXCOORD_1": 70 },
          "mode": 4,
          "material": 4,
          "indices": 10
        }
      ]
    },
    {
      "name": "room_concrete_walls_mesh",
      "primitives": [
        {
          "attributes": { "TEXCOORD_0": 13, "POSITION": 71, "NORMAL": 72, "TEXCOORD_1": 73 },
          "mode": 4,
          "material": 5,
          "indices": 12
        }
      ]
    },
    {
      "name": "room_dark_panel_mesh",
      "primitives": [
        {
          "attributes": { "POSITION": 74, "NORMAL": 75, "TEXCOORD_0": 76, "TEXCOORD_1": 77 },
          "mode": 4,
          "material": 6,
          "indices": 14
        }
      ]
    },
    {
      "name": "room_floor_polished_mesh",
      "primitives": [
        {
          "attributes": { "TEXCOORD_0": 16, "POSITION": 78, "NORMAL": 79, "TEXCOORD_1": 80 },
          "mode": 4,
          "material": 7,
          "indices": 15
        }
      ]
    },
    {
      "name": "room_metal_pipes_mesh",
      "primitives": [
        {
          "attributes": { "POSITION": 81, "NORMAL": 82, "TEXCOORD_0": 83 },
          "mode": 4,
          "material": 8,
          "indices": 17
        }
      ]
    },
    {
      "name": "room_rug_mesh",
      "primitives": [
        {
          "attributes": { "TEXCOORD_0": 19, "POSITION": 84, "NORMAL": 85, "TEXCOORD_1": 86 },
          "mode": 4,
          "material": 9,
          "indices": 18
        }
      ]
    },
    {
      "name": "room_steel_window_frame_mesh",
      "primitives": [
        {
          "attributes": { "POSITION": 87, "NORMAL": 88, "TEXCOORD_0": 89, "TEXCOORD_1": 90 },
          "mode": 4,
          "material": 10,
          "indices": 20
        }
      ]
    },
    {
      "name": "shell_east_mesh",
      "primitives": [
        {
          "attributes": { "TEXCOORD_0": 22, "POSITION": 91, "NORMAL": 92, "TEXCOORD_1": 93 },
          "mode": 4,
          "material": 5,
          "indices": 21
        }
      ]
    },
    {
      "name": "shell_ne_block_mesh",
      "primitives": [
        {
          "attributes": { "TEXCOORD_0": 24, "POSITION": 94, "NORMAL": 95, "TEXCOORD_1": 96 },
          "mode": 4,
          "material": 6,
          "indices": 23
        }
      ]
    },
    {
      "name": "shell_south_mesh",
      "primitives": [
        {
          "attributes": { "TEXCOORD_0": 26, "POSITION": 97, "NORMAL": 98, "TEXCOORD_1": 99 },
          "mode": 4,
          "material": 5,
          "indices": 25
        }
      ]
    },
    {
      "name": "tv_body_mesh",
      "primitives": [
        {
          "attributes": { "POSITION": 100, "NORMAL": 101, "TEXCOORD_0": 102, "TEXCOORD_1": 103 },
          "mode": 4,
          "material": 1,
          "indices": 27
        }
      ]
    },
    {
      "name": "tv_screen_mesh",
      "primitives": [
        {
          "attributes": { "POSITION": 104, "NORMAL": 105, "TEXCOORD_0": 106 },
          "mode": 4,
          "material": 11,
          "indices": 21
        }
      ]
    },
    {
      "name": "window_sky_mesh",
      "primitives": [
        {
          "attributes": { "POSITION": 107, "NORMAL": 108, "TEXCOORD_0": 106 },
          "mode": 4,
          "material": 12,
          "indices": 21
        }
      ]
    }
  ],
  "nodes": [
    {
      "name": "coffee_table_cup_saucer",
      "extras": { "category": "hero_table" },
      "translation": [0.329681858420372, 0.46156519651412964, -0.75938880443573],
      "scale": [0.0767214298248291, 0.0767214298248291, 0.0767214298248291],
      "mesh": 0
    },
    {
      "name": "coffee_table_magazine",
      "extras": { "category": "hero_table" },
      "translation": [0.32523882389068604, 0.44971421360969543, -0.7419302761554718],
      "scale": [0.1982370913028717, 0.1982370913028717, 0.1982370913028717],
      "mesh": 1
    },
    {
      "name": "coffee_table_pot_A",
      "extras": { "category": "hero_table" },
      "translation": [-0.009857509285211563, 0.4722995460033417, -0.8181931972503662],
      "scale": [0.05285513401031494, 0.05285513401031494, 0.05285513401031494],
      "mesh": 2
    },
    {
      "name": "coffee_table_pot_B",
      "extras": { "category": "hero_table" },
      "translation": [-0.20186305046081543, 0.4727954864501953, -0.9193689823150635],
      "scale": [0.06553101539611816, 0.06553101539611816, 0.06553101539611816],
      "mesh": 3
    },
    {
      "name": "coffee_table_pot_C",
      "extras": { "category": "hero_table" },
      "translation": [-0.08380496874451637, 0.4809111952781677, -1.0169296860694885],
      "scale": [0.06895226240158081, 0.06895226240158081, 0.06895226240158081],
      "mesh": 4
    },
    {
      "name": "coffee_table_top",
      "extras": { "category": "hero_table" },
      "translation": [0.1771470159292221, 0.4065087139606476, -0.8159584999084473],
      "scale": [0.49973949790000916, 0.49973949790000916, 0.49973949790000916],
      "mesh": 5
    },
    {
      "name": "room_atlasA_sofa_table",
      "extras": {
        "category": "furniture,hero_table",
        "parts": "coffee_table_legs_frame,sofa,sofa_throw_pillows"
      },
      "translation": [0.16867297887802124, 0.2925674133002758, -1.5386447310447693],
      "scale": [1.5131296515464783, 1.5131296515464783, 1.5131296515464783],
      "mesh": 6
    },
    {
      "name": "room_atlasB_tv_cabinet",
      "extras": {
        "category": "furniture,hero_tv",
        "parts": "display_cabinet,display_cabinet_vase,tv_console,tv_console_devices"
      },
      "translation": [-2.0223453640937805, 0.9765842417255044, 0.159559965133667],
      "scale": [1.7324326038360596, 1.7324326038360596, 1.7324326038360596],
      "mesh": 7
    },
    {
      "name": "room_atlasC_plants",
      "extras": { "category": "furniture", "parts": "plant_stand_A,plant_stand_B" },
      "translation": [-1.6400212049484253, 0.5540098212659359, -2.1746134757995605],
      "scale": [0.5709186531603336, 0.5709186531603336, 0.5709186531603336],
      "mesh": 8
    },
    {
      "name": "room_atlasD_lamps",
      "extras": {
        "category": "lamps",
        "parts": "arc_floor_lamp,arc_lamp_shade,pendant_lamp_1,tripod_floor_lamp"
      },
      "translation": [-0.40697646141052246, 1.4064168483018875, -0.9140257835388184],
      "scale": [1.770188808441162, 1.770188808441162, 1.770188808441162],
      "mesh": 9
    },
    {
      "name": "room_ceiling_concrete",
      "extras": { "category": "shell", "parts": "ceiling_beams_slab" },
      "translation": [0.17132210731506348, 3.293248772621155, -1.5919663682579994],
      "scale": [2.4259047508239746, 2.4259047508239746, 2.4259047508239746],
      "mesh": 10
    },
    {
      "name": "room_concrete_walls",
      "extras": {
        "category": "shell",
        "parts": "wall_north_header,wall_north_pier_W,wall_west_tv"
      },
      "translation": [-0.2871338129043579, 1.8870491981506348, -1.1095817387104034],
      "scale": [2.3254064321517944, 2.3254064321517944, 2.3254064321517944],
      "mesh": 11
    },
    {
      "name": "room_dark_panel",
      "extras": { "category": "shell", "parts": "ceiling,wall_cabinet_niche_dark" },
      "translation": [-0.06139266490936279, 1.9049908518791199, -0.49511539936065674],
      "scale": [3.32180392742157, 3.32180392742157, 3.32180392742157],
      "mesh": 12
    },
    {
      "name": "room_floor_polished",
      "extras": { "category": "shell", "parts": "floor" },
      "translation": [-0.0604856014251709, 0.000009717575721879257, -0.3534597158432007],
      "scale": [3.463459610939026, 3.463459610939026, 3.463459610939026],
      "mesh": 13
    },
    {
      "name": "room_metal_pipes",
      "extras": { "category": "shell", "parts": "ceiling_pipe_W1,ceiling_pipe_W2" },
      "translation": [-1.0735954940319061, 2.815016031265259, -1.0369500815868378],
      "scale": [1.0862851440906525, 1.0862851440906525, 1.0862851440906525],
      "mesh": 14
    },
    {
      "name": "room_rug",
      "extras": { "category": "hero_table", "parts": "rug" },
      "translation": [0.11598750948905945, -0.03796455264091492, -0.9070906639099121],
      "scale": [0.9528938829898834, 0.9528938829898834, 0.9528938829898834],
      "mesh": 15
    },
    {
      "name": "room_steel_window_frame",
      "extras": { "category": "shell", "parts": "window_frame_steel" },
      "translation": [0.1328163743019104, 1.2178916931152344, -3.1494885683059692],
      "scale": [1.836819350719452, 1.836819350719452, 1.836819350719452],
      "mesh": 16
    },
    {
      "name": "shell_east",
      "extras": { "category": "shell_closure" },
      "translation": [2.5299999713897705, 1.6675000376999378, -0.2250000238418579],
      "scale": [3.334999918937683, 3.334999918937683, 3.334999918937683],
      "mesh": 17
    },
    {
      "name": "shell_ne_block",
      "extras": { "category": "shell_closure" },
      "translation": [2.7143343687057495, 1.4314328655600548, -3.17291796207428],
      "scale": [1.5119787231087685, 1.5119787231087685, 1.5119787231087685],
      "mesh": 18
    },
    {
      "name": "shell_south",
      "extras": { "category": "shell_closure" },
      "translation": [0.07744574546813965, 1.8135982602834702, 2.5669875144958496],
      "scale": [2.728416681289673, 2.728416681289673, 2.728416681289673],
      "mesh": 19
    },
    {
      "name": "tv_body",
      "extras": { "category": "hero_tv" },
      "translation": [-1.7973147630691528, 0.8324451148509979, -0.6305659413337708],
      "scale": [0.483759343624115, 0.483759343624115, 0.483759343624115],
      "mesh": 20
    },
    {
      "name": "tv_screen",
      "extras": { "category": "hero_tv" },
      "translation": [-1.7843950390815735, 0.8675099909305573, -0.6324000060558319],
      "scale": [0.47599998116493225, 0.47599998116493225, 0.47599998116493225],
      "mesh": 21
    },
    {
      "name": "window_sky",
      "extras": { "category": "shell" },
      "translation": [0.4035532772541046, 1.5182120874524117, -3.3667320013046265],
      "scale": [1.4240705892443657, 1.4240705892443657, 1.4240705892443657],
      "mesh": 22
    }
  ],
  "scenes": [
    {
      "name": "Scene",
      "nodes": [0, 1, 2, 3, 4, 5, 6, 7, 8, 9, 10, 11, 12, 13, 14, 15, 16, 17, 18, 19, 20, 21, 22]
    }
  ],
  "scene": 0,
  "extensionsUsed": ["EXT_meshopt_compression", "KHR_mesh_quantization", "KHR_texture_basisu"],
  "extensionsRequired": ["EXT_meshopt_compression", "KHR_mesh_quantization", "KHR_texture_basisu"]
}
